<?xml version="1.0" encoding="UTF-8"?>
<!DOCTYPE svg PUBLIC "-//W3C//DTD SVG 1.1//EN" "http://www.w3.org/Graphics/SVG/1.1/DTD/svg11.dtd">
<svg xmlns="http://www.w3.org/2000/svg" version="1.1" width="150" height="150" viewBox="0 0 250 120" style="shape-rendering:geometricPrecision; text-rendering:geometricPrecision; image-rendering:optimizeQuality; fill-rule:evenodd; clip-rule:evenodd" xmlns:xlink="http://www.w3.org/1999/xlink">
<g><path style="opacity:1" fill="#c86a9b" d="M 220.5,15.5 C 216.885,15.845 213.552,15.1783 210.5,13.5C 218.342,7.21153 227.009,5.54486 236.5,8.5C 235.672,9.41471 234.672,10.0814 233.5,10.5C 231.568,9.63388 229.568,8.96721 227.5,8.5C 223.924,9.2559 220.258,10.7559 216.5,13C 218.066,13.6082 219.4,14.4415 220.5,15.5 Z"/></g>
<g><path style="opacity:0.275" fill="#9a9599" d="M 109.5,9.5 C 110.209,8.59603 111.209,8.26269 112.5,8.5C 112.737,9.79105 112.404,10.791 111.5,11.5C 111.5,10.1667 110.833,9.5 109.5,9.5 Z"/></g>
<g><path style="opacity:0.012" fill="#cbc2c8" d="M 230.5,10.5 C 231.525,10.8966 231.692,11.5632 231,12.5C 230.536,11.9056 230.369,11.2389 230.5,10.5 Z"/></g>
<g><path style="opacity:0.918" fill="#545353" d="M 53.5,11.5 C 51.1578,12.0082 48.9912,13.0082 47,14.5C 42.5977,14.0173 38.0977,14.0173 33.5,14.5C 39.8989,12.6356 46.5656,11.6356 53.5,11.5 Z"/></g>
<g><path style="opacity:0.998" fill="#343333" d="M 109.5,9.5 C 110.833,9.5 111.5,10.1667 111.5,11.5C 109.066,14.4376 106.399,17.2709 103.5,20C 88.9513,20.2944 74.2846,19.461 59.5,17.5C 54.6918,18.3005 49.8584,17.9672 45,16.5C 36.35,16.7047 28.1834,18.8713 20.5,23C 18.2659,25.0627 16.2659,27.2294 14.5,29.5C 14.9227,27.2188 14.256,25.5521 12.5,24.5C 18.2708,18.7829 25.2708,15.4496 33.5,14.5C 38.0977,14.0173 42.5977,14.0173 47,14.5C 48.9912,13.0082 51.1578,12.0082 53.5,11.5C 69.5073,11.7706 85.5073,11.9372 101.5,12C 104.292,11.4577 106.958,10.6244 109.5,9.5 Z"/></g>
<g><path style="opacity:0.949" fill="#c986ab" d="M 198.5,17.5 C 198.5,16.5 198.5,15.5 198.5,14.5C 197.167,14.5 195.833,14.5 194.5,14.5C 193.833,14.5 193.167,14.5 192.5,14.5C 194.872,12.3333 197.539,11.9999 200.5,13.5C 200.771,15.3797 200.104,16.713 198.5,17.5 Z"/></g>
<g><path style="opacity:1" fill="#dc308a" d="M 194.5,14.5 C 195.833,14.5 197.167,14.5 198.5,14.5C 198.5,15.5 198.5,16.5 198.5,17.5C 196.063,17.7563 193.729,18.4229 191.5,19.5C 190.614,18.675 190.281,17.675 190.5,16.5C 192.38,16.7709 193.713,16.1042 194.5,14.5 Z"/></g>
<g><path style="opacity:1" fill="#cd6195" d="M 220.5,15.5 C 225.807,17.5435 225.807,19.5435 220.5,21.5C 220.5,19.5 220.5,17.5 220.5,15.5 Z"/></g>
<g><path style="opacity:1" fill="#d0458e" d="M 192.5,14.5 C 193.167,14.5 193.833,14.5 194.5,14.5C 193.713,16.1042 192.38,16.7709 190.5,16.5C 190.281,17.675 190.614,18.675 191.5,19.5C 193.729,18.4229 196.063,17.7563 198.5,17.5C 198.47,18.4972 198.97,19.1639 200,19.5C 201.731,18.259 203.564,17.259 205.5,16.5C 203.554,18.5097 203.554,20.1764 205.5,21.5C 204.975,22.1924 204.308,22.6924 203.5,23C 203.161,25.2772 203.827,27.4439 205.5,29.5C 203.565,30.1495 201.565,30.4828 199.5,30.5C 198.5,29.1667 197.5,29.1667 196.5,30.5C 191.931,31.059 187.598,32.3923 183.5,34.5C 181.829,34.3318 180.496,33.6651 179.5,32.5C 180.873,32.6567 182.207,32.49 183.5,32C 182.748,31.3292 182.414,30.4959 182.5,29.5C 185.702,28.8691 188.702,27.8691 191.5,26.5C 192.429,25.6851 193.429,24.8518 194.5,24C 184.597,22.7015 183.93,19.5348 192.5,14.5 Z"/></g>
<g><path style="opacity:1" fill="#d3368a" d="M 210.5,13.5 C 213.552,15.1783 216.885,15.845 220.5,15.5C 220.5,17.5 220.5,19.5 220.5,21.5C 220.5,22.1667 220.167,22.5 219.5,22.5C 218.957,22.56 218.624,22.8933 218.5,23.5C 219.475,25.7952 220.808,27.7952 222.5,29.5C 222.535,31.7368 221.702,32.0702 220,30.5C 215.146,33.8223 212.646,32.489 212.5,26.5C 211.448,26.3505 210.448,26.5172 209.5,27C 210.406,28.6995 210.739,30.5328 210.5,32.5C 208.827,33.343 207.66,34.6763 207,36.5C 205.615,34.0845 205.115,31.7512 205.5,29.5C 203.827,27.4439 203.161,25.2772 203.5,23C 204.308,22.6924 204.975,22.1924 205.5,21.5C 203.554,20.1764 203.554,18.5097 205.5,16.5C 206.659,14.7497 208.326,13.7497 210.5,13.5 Z"/></g>
<g><path style="opacity:0.576" fill="#d78cb6" d="M 210.5,22.5 C 209.957,22.44 209.624,22.1067 209.5,21.5C 210.689,20.5713 212.022,20.238 213.5,20.5C 213.5,21.5 213.5,22.5 213.5,23.5C 212.209,23.7373 211.209,23.404 210.5,22.5 Z"/></g>
<g><path style="opacity:1" fill="#343332" d="M 61.5,63.5 C 61.1742,61.3393 60.1742,59.5059 58.5,58C 60.9468,56.7711 61.1135,55.2711 59,53.5C 58.7996,55.3197 57.9663,56.653 56.5,57.5C 58.8665,50.4303 61.5331,43.0969 64.5,35.5C 66.2132,34.3646 66.8799,32.698 66.5,30.5C 64.7376,30.3573 63.0709,30.6906 61.5,31.5C 60.537,31.0302 60.537,30.3635 61.5,29.5C 65.8103,26.3408 70.4769,23.6742 75.5,21.5C 76.7199,21.8869 77.3865,22.7202 77.5,24C 72.5281,37.4255 67.1948,50.5921 61.5,63.5 Z"/></g>
<g><path style="opacity:1" fill="#cb659c" d="M 220.5,23.5 C 228.982,23.3955 236.982,25.0622 244.5,28.5C 240.815,27.9963 237.149,27.3296 233.5,26.5C 231.024,26.2326 230.357,26.8993 231.5,28.5C 228.833,28.5 226.167,28.5 223.5,28.5C 225.292,27.6909 227.292,27.1909 229.5,27C 227.326,25.2029 224.993,25.0362 222.5,26.5C 221.575,25.6431 220.908,24.6431 220.5,23.5 Z"/></g>
<g><path style="opacity:0.067" fill="#e1bcd7" d="M 157.5,28.5 C 155.219,28.0773 153.552,28.744 152.5,30.5C 151.596,29.791 151.263,28.791 151.5,27.5C 153.735,27.2053 155.735,27.5386 157.5,28.5 Z"/></g>
<g><path style="opacity:1" fill="#d23886" d="M 244.5,28.5 C 246.129,30.1959 245.796,31.1959 243.5,31.5C 243.53,30.5028 243.03,29.8361 242,29.5C 240.31,30.1495 238.477,30.1495 236.5,29.5C 234.585,29.7845 232.919,29.4511 231.5,28.5C 230.357,26.8993 231.024,26.2326 233.5,26.5C 237.149,27.3296 240.815,27.9963 244.5,28.5 Z"/></g>
<g><path style="opacity:0.576" fill="#cd76a6" d="M 191.5,26.5 C 188.702,27.8691 185.702,28.8691 182.5,29.5C 174.5,29.5 166.5,29.5 158.5,29.5C 157.833,29.5 157.5,29.1667 157.5,28.5C 168.788,28.9228 180.121,28.2561 191.5,26.5 Z"/></g>
<g><path style="opacity:1" fill="#d2257f" d="M 158.5,29.5 C 166.5,29.5 174.5,29.5 182.5,29.5C 182.414,30.4959 182.748,31.3292 183.5,32C 182.207,32.49 180.873,32.6567 179.5,32.5C 173.009,31.3214 166.342,30.8214 159.5,31C 160.711,31.8928 160.711,32.7261 159.5,33.5C 158.571,32.3112 158.238,30.9778 158.5,29.5 Z"/></g>
<g><path style="opacity:0.318" fill="#b98fa9" d="M 196.5,30.5 C 197.5,29.1667 198.5,29.1667 199.5,30.5C 198.5,31.8333 197.5,31.8333 196.5,30.5 Z"/></g>
<g><path style="opacity:0.012" fill="#c8c1c6" d="M 249.5,29.5 C 250.833,30.1667 250.833,30.1667 249.5,29.5 Z"/></g>
<g><path style="opacity:1" fill="#c85891" d="M 157.5,28.5 C 157.5,29.1667 157.833,29.5 158.5,29.5C 158.238,30.9778 158.571,32.3112 159.5,33.5C 160.711,32.7261 160.711,31.8928 159.5,31C 166.342,30.8214 173.009,31.3214 179.5,32.5C 173.046,32.2318 166.713,32.8984 160.5,34.5C 159.5,34.5 158.5,34.5 157.5,34.5C 157.5,34.1667 157.5,33.8333 157.5,33.5C 157.737,32.209 157.404,31.209 156.5,30.5C 155.167,31.8333 153.833,31.8333 152.5,30.5C 153.552,28.744 155.219,28.0773 157.5,28.5 Z"/></g>
<g><path style="opacity:1" fill="#c35c94" d="M 236.5,29.5 C 238.477,30.1495 240.31,30.1495 242,29.5C 243.03,29.8361 243.53,30.5028 243.5,31.5C 240.378,33.4337 238.045,32.7671 236.5,29.5 Z"/></g>
<g><path style="opacity:1" fill="#6b6769" d="M 61.5,29.5 C 60.537,30.3635 60.537,31.0302 61.5,31.5C 63.0709,30.6906 64.7376,30.3573 66.5,30.5C 66.8799,32.698 66.2132,34.3646 64.5,35.5C 65.2916,34.0331 65.2916,32.6998 64.5,31.5C 62.677,32.7472 60.677,33.4139 58.5,33.5C 58.0882,31.0274 59.0882,29.6941 61.5,29.5 Z"/></g>
<g><path style="opacity:0.031" fill="#cfc5cc" d="M 234.5,32.5 C 234.897,31.475 235.563,31.3083 236.5,32C 235.906,32.4643 235.239,32.631 234.5,32.5 Z"/></g>
<g><path style="opacity:1" fill="#bf6294" d="M 244.5,28.5 C 247.769,29.5597 249.435,31.8931 249.5,35.5C 249.062,36.5063 248.396,36.5063 247.5,35.5C 247.5,34.8333 247.167,34.5 246.5,34.5C 246.167,33.1667 245.833,33.1667 245.5,34.5C 244.094,34.0269 243.427,33.0269 243.5,31.5C 245.796,31.1959 246.129,30.1959 244.5,28.5 Z"/></g>
<g><path style="opacity:0.067" fill="#d7b5cd" d="M 156.5,30.5 C 157.404,31.209 157.737,32.209 157.5,33.5C 156.761,33.631 156.094,33.4643 155.5,33C 156.252,32.3292 156.586,31.4959 156.5,30.5 Z"/></g>
<g><path style="opacity:0.216" fill="#c5a2b7" d="M 157.5,34.5 C 158.5,34.5 159.5,34.5 160.5,34.5C 159.5,37.1667 158.5,37.1667 157.5,34.5 Z"/></g>
<g><path style="opacity:0.012" fill="#686867" d="M 245.5,34.5 C 245.833,34.5 246.167,34.5 246.5,34.5C 246.315,35.1701 245.981,35.1701 245.5,34.5 Z"/></g>
<g><path style="opacity:1" fill="#333232" d="M 12.5,24.5 C 14.256,25.5521 14.9227,27.2188 14.5,29.5C 9.53413,48.8864 17.2008,58.2197 37.5,57.5C 37.7148,59.1788 37.0481,60.1788 35.5,60.5C 31.5,60.5 27.5,60.5 23.5,60.5C 13.37,59.4416 6.70329,54.1082 3.5,44.5C 4.64911,44.2089 5.31577,43.3756 5.5,42C 5.31577,40.6244 4.64911,39.7911 3.5,39.5C 5.23251,33.6953 8.23251,28.6953 12.5,24.5 Z"/></g>
<g><path style="opacity:0.012" fill="#c8c1c6" d="M 145.5,38.5 C 145.639,36.663 146.306,36.3296 147.5,37.5C 147.043,38.2975 146.376,38.6309 145.5,38.5 Z"/></g>
<g><path style="opacity:0.165" fill="#d5b3c9" d="M 247.5,35.5 C 248.396,36.5063 249.062,36.5063 249.5,35.5C 251.225,35.8425 251.725,36.8425 251,38.5C 249.271,38.0257 248.105,37.0257 247.5,35.5 Z"/></g>
<g><path style="opacity:1" fill="#c53d87" d="M 219.5,22.5 C 219.5,23.1667 219.833,23.5 220.5,23.5C 220.908,24.6431 221.575,25.6431 222.5,26.5C 224.993,25.0362 227.326,25.2029 229.5,27C 227.292,27.1909 225.292,27.6909 223.5,28.5C 224.218,30.1368 224.384,31.8034 224,33.5C 221.96,35.3702 220.127,37.3702 218.5,39.5C 214.664,41.5836 210.997,43.917 207.5,46.5C 207.585,45.0047 206.919,44.0047 205.5,43.5C 203.422,44.2407 201.588,45.9074 200,48.5C 199,45.8333 198,45.8333 197,48.5C 197.155,46.1893 197.155,43.856 197,41.5C 196.098,43.4308 194.931,45.0975 193.5,46.5C 193.517,44.4352 193.85,42.4352 194.5,40.5C 198.237,40.7593 200.57,39.0926 201.5,35.5C 201.107,33.7162 200.441,32.0495 199.5,30.5C 201.565,30.4828 203.565,30.1495 205.5,29.5C 205.115,31.7512 205.615,34.0845 207,36.5C 207.66,34.6763 208.827,33.343 210.5,32.5C 210.739,30.5328 210.406,28.6995 209.5,27C 210.448,26.5172 211.448,26.3505 212.5,26.5C 212.646,32.489 215.146,33.8223 220,30.5C 221.702,32.0702 222.535,31.7368 222.5,29.5C 220.808,27.7952 219.475,25.7952 218.5,23.5C 218.624,22.8933 218.957,22.56 219.5,22.5 Z M 210.5,32.5 C 214.475,32.2497 214.475,33.2497 210.5,35.5C 209.913,34.7666 209.913,33.7666 210.5,32.5 Z"/></g>
<g><path style="opacity:0.012" fill="#c8c1c6" d="M 248.5,38.5 C 249.833,39.1667 249.833,39.1667 248.5,38.5 Z"/></g>
<g><path style="opacity:1" fill="#b12d76" d="M 143.5,37.5 C 144.167,37.5 144.5,37.8333 144.5,38.5C 145.219,40.7638 145.552,43.0971 145.5,45.5C 143.208,45.7564 141.041,45.4231 139,44.5C 138.764,42.236 138.264,40.0693 137.5,38C 139.473,37.5045 141.473,37.3379 143.5,37.5 Z"/></g>
<g><path style="opacity:1" fill="#b9558a" d="M 201.5,35.5 C 200.57,39.0926 198.237,40.7593 194.5,40.5C 196.891,39.0177 199.224,37.3511 201.5,35.5 Z"/></g>
<g><path style="opacity:0.012" fill="#c8c1c6" d="M 218.5,39.5 C 219.833,40.1667 219.833,40.1667 218.5,39.5 Z"/></g>
<g><path style="opacity:0.324" fill="#7d7c7c" d="M 3.5,39.5 C 4.64911,39.7911 5.31577,40.6244 5.5,42C 5.31577,43.3756 4.64911,44.2089 3.5,44.5C 3.5,42.8333 3.5,41.1667 3.5,39.5 Z"/></g>
<g><path style="opacity:0.796" fill="#b97e9d" d="M 96.5,43.5 C 95.5084,43.3284 94.8417,43.6618 94.5,44.5C 92.6064,43.9524 90.9397,42.9524 89.5,41.5C 88.1667,40.8333 88.1667,40.1667 89.5,39.5C 91.8926,40.9295 94.2259,42.2628 96.5,43.5 Z"/></g>
<g><path style="opacity:0.012" fill="#c8c1c6" d="M 89.5,43.5 C 90.8333,44.1667 90.8333,44.1667 89.5,43.5 Z"/></g>
<g><path style="opacity:1" fill="#893068" d="M 143.5,37.5 C 141.473,37.3379 139.473,37.5045 137.5,38C 138.264,40.0693 138.764,42.236 139,44.5C 141.041,45.4231 143.208,45.7564 145.5,45.5C 145.552,43.0971 145.219,40.7638 144.5,38.5C 144.833,38.5 145.167,38.5 145.5,38.5C 146.569,41.408 146.736,44.408 146,47.5C 145.292,48.3805 144.458,49.0472 143.5,49.5C 135.7,49.7036 132.7,46.0369 134.5,38.5C 134.611,37.8826 134.944,37.3826 135.5,37C 138.367,36.1993 141.034,36.3659 143.5,37.5 Z"/></g>
<g><path style="opacity:1" fill="#bb5286" d="M 96.5,43.5 C 97.791,43.2627 98.791,43.596 99.5,44.5C 102.258,45.9665 101.925,46.6332 98.5,46.5C 96.847,46.3404 95.5137,45.6737 94.5,44.5C 94.8417,43.6618 95.5084,43.3284 96.5,43.5 Z"/></g>
<g><path style="opacity:1" fill="#b7608e" d="M 194.5,40.5 C 193.85,42.4352 193.517,44.4352 193.5,46.5C 194.207,49.7861 194.54,53.1194 194.5,56.5C 194.5,57.1667 194.167,57.5 193.5,57.5C 193.466,53.396 192.799,49.396 191.5,45.5C 191.286,43.0582 192.286,41.3915 194.5,40.5 Z"/></g>
<g><path style="opacity:1" fill="#825371" d="M 134.5,38.5 C 132.7,46.0369 135.7,49.7036 143.5,49.5C 143.217,50.2891 142.717,50.9558 142,51.5C 140.333,50.1667 138.667,50.1667 137,51.5C 136.29,50.0267 135.124,49.3601 133.5,49.5C 133.122,47.3537 132.788,45.187 132.5,43C 132.307,40.9919 132.974,39.4919 134.5,38.5 Z"/></g>
<g><path style="opacity:1" fill="#b2317b" d="M 207.5,46.5 C 207.5,47.8333 207.5,49.1667 207.5,50.5C 207.657,51.8734 207.49,53.2068 207,54.5C 206.111,53.1118 205.611,53.2785 205.5,55C 206.24,57.9427 207.24,58.1093 208.5,55.5C 208.833,56 209.167,56.5 209.5,57C 208.419,58.3707 207.585,59.8707 207,61.5C 205.98,60.1095 205.147,58.6095 204.5,57C 202.893,57.0187 201.226,57.1854 199.5,57.5C 199.649,58.552 199.483,59.552 199,60.5C 197.586,59.0086 196.086,57.6753 194.5,56.5C 194.54,53.1194 194.207,49.7861 193.5,46.5C 194.931,45.0975 196.098,43.4308 197,41.5C 197.155,43.856 197.155,46.1893 197,48.5C 198,45.8333 199,45.8333 200,48.5C 201.588,45.9074 203.422,44.2407 205.5,43.5C 206.919,44.0047 207.585,45.0047 207.5,46.5 Z"/></g>
<g><path style="opacity:0.012" fill="#c8c1c6" d="M 89.5,46.5 C 91.337,46.6395 91.6704,47.3061 90.5,48.5C 89.7025,48.0431 89.3691,47.3764 89.5,46.5 Z"/></g>
<g><path style="opacity:0.012" fill="#c8c1c6" d="M 94.5,46.5 C 95.8333,47.1667 95.8333,47.1667 94.5,46.5 Z"/></g>
<g><path style="opacity:1" fill="#bc739b" d="M 99.5,44.5 C 102.067,44.7215 104.401,45.3882 106.5,46.5C 105.127,46.3433 103.793,46.51 102.5,47C 104.175,47.9853 105.842,48.8186 107.5,49.5C 103.956,49.8676 100.956,48.8676 98.5,46.5C 101.925,46.6332 102.258,45.9665 99.5,44.5 Z"/></g>
<g><path style="opacity:1" fill="#973b6f" d="M 106.5,46.5 C 112.051,46.527 117.384,47.1937 122.5,48.5C 122.918,49.2216 123.584,49.7216 124.5,50C 123.5,50.1667 122.5,50.3333 121.5,50.5C 117.202,49.7035 112.868,49.3701 108.5,49.5C 108.167,49.5 107.833,49.5 107.5,49.5C 105.842,48.8186 104.175,47.9853 102.5,47C 103.793,46.51 105.127,46.3433 106.5,46.5 Z"/></g>
<g><path style="opacity:0.541" fill="#9b5c82" d="M 122.5,48.5 C 125.614,48.5548 127.948,49.8881 129.5,52.5C 127.565,51.8505 125.565,51.5172 123.5,51.5C 118.25,51.6975 113.25,51.0308 108.5,49.5C 112.868,49.3701 117.202,49.7035 121.5,50.5C 122.5,50.3333 123.5,50.1667 124.5,50C 123.584,49.7216 122.918,49.2216 122.5,48.5 Z"/></g>
<g><path style="opacity:0.122" fill="#aa9aa5" d="M 123.5,51.5 C 125.565,51.5172 127.565,51.8505 129.5,52.5C 131.264,53.326 132.598,54.6593 133.5,56.5C 132.833,56.5 132.167,56.5 131.5,56.5C 130.733,55.828 130.066,54.9947 129.5,54C 127.277,53.4338 125.277,52.6005 123.5,51.5 Z"/></g>
<g><path style="opacity:1" fill="#353534" d="M 181.5,60.5 C 180.883,60.3893 180.383,60.056 180,59.5C 180.349,63.3762 179.516,63.3762 177.5,59.5C 176.808,60.0253 176.308,60.6919 176,61.5C 174.893,60.2881 174.393,60.6214 174.5,62.5C 170.04,56.1738 164.374,55.0071 157.5,59C 153.877,62.4495 150.877,66.2828 148.5,70.5C 148.286,68.8561 148.62,67.3561 149.5,66C 148.934,65.0053 148.267,64.172 147.5,63.5C 152.296,56.341 159.129,52.341 168,51.5C 174.164,52.1552 178.664,55.1552 181.5,60.5 Z"/></g>
<g><path style="opacity:1" fill="#363534" d="M 89.5,65.5 C 88.1667,65.8333 88.1667,66.1667 89.5,66.5C 89.5,67.1667 89.1667,67.5 88.5,67.5C 87.8333,67.5 87.5,67.8333 87.5,68.5C 87.1667,68.5 86.8333,68.5 86.5,68.5C 83.2437,69.7689 81.7437,68.4355 82,64.5C 81.1477,68.2641 79.6477,71.5974 77.5,74.5C 78.5352,70.5609 79.8686,66.7275 81.5,63C 79.1122,62.1349 77.6122,62.9683 77,65.5C 73.8197,63.2929 73.9864,61.1263 77.5,59C 81.6281,55.5926 86.2948,53.926 91.5,54C 91.9574,54.414 92.2907,54.914 92.5,55.5C 91.0906,58.7268 90.0906,62.0601 89.5,65.5 Z"/></g>
<g><path style="opacity:1" fill="#31302f" d="M 61.5,63.5 C 59.228,70.6491 56.5613,77.6491 53.5,84.5C 51.7708,85.1175 50.2708,86.1175 49,87.5C 47.872,85.6547 47.372,83.6547 47.5,81.5C 47.3284,80.5084 47.6618,79.8417 48.5,79.5C 50.0739,77.8984 50.7406,75.8984 50.5,73.5C 51.9868,67.8802 53.9868,62.5468 56.5,57.5C 57.9663,56.653 58.7996,55.3197 59,53.5C 61.1135,55.2711 60.9468,56.7711 58.5,58C 60.1742,59.5059 61.1742,61.3393 61.5,63.5 Z"/></g>
<g><path style="opacity:0.094" fill="#cca7c0" d="M 124.5,58.5 C 123.89,59.391 123.557,60.391 123.5,61.5C 122.115,60.0527 122.448,59.0527 124.5,58.5 Z"/></g>
<g><path style="opacity:0.851" fill="#a5678d" d="M 124.5,58.5 C 126.856,58.1896 129.19,58.1896 131.5,58.5C 131.516,61.8325 130.183,63.1658 127.5,62.5C 128.167,62.5 128.5,62.1667 128.5,61.5C 128.607,59.6214 128.107,59.2881 127,60.5C 126.583,59.244 125.75,58.5774 124.5,58.5 Z"/></g>
<g><path style="opacity:0.012" fill="#706f6f" d="M 23.5,60.5 C 27.5,60.5 31.5,60.5 35.5,60.5C 34.6879,61.9931 33.3545,62.6598 31.5,62.5C 28.6143,62.1957 25.9476,61.529 23.5,60.5 Z"/></g>
<g><path style="opacity:1" fill="#a23976" d="M 207.5,50.5 C 210.9,55.307 213.234,60.6403 214.5,66.5C 214.5,66.8333 214.5,67.1667 214.5,67.5C 212.721,68.6697 211.721,70.3364 211.5,72.5C 211.167,72.5 210.833,72.5 210.5,72.5C 207.517,68.8718 204.683,64.5384 202,59.5C 200.663,63.5067 198.83,67.1733 196.5,70.5C 194.801,70.4729 193.467,69.8062 192.5,68.5C 193.051,65.1933 193.384,61.8599 193.5,58.5C 193.5,58.1667 193.5,57.8333 193.5,57.5C 194.167,57.5 194.5,57.1667 194.5,56.5C 196.086,57.6753 197.586,59.0086 199,60.5C 199.483,59.552 199.649,58.552 199.5,57.5C 201.226,57.1854 202.893,57.0187 204.5,57C 205.147,58.6095 205.98,60.1095 207,61.5C 207.585,59.8707 208.419,58.3707 209.5,57C 209.167,56.5 208.833,56 208.5,55.5C 207.24,58.1093 206.24,57.9427 205.5,55C 205.611,53.2785 206.111,53.1118 207,54.5C 207.49,53.2068 207.657,51.8734 207.5,50.5 Z"/></g>
<g><path style="opacity:0.318" fill="#b07499" d="M 193.5,58.5 C 193.384,61.8599 193.051,65.1933 192.5,68.5C 192.737,69.791 192.404,70.791 191.5,71.5C 191.28,66.9 191.946,62.5667 193.5,58.5 Z"/></g>
<g><path style="opacity:1" fill="#353433" d="M 85.5,77.5 C 84.1531,74.5684 84.4865,71.9017 86.5,69.5C 87.1667,69.5 87.5,69.1667 87.5,68.5C 88.1667,68.5 88.5,68.1667 88.5,67.5C 89.1667,67.5 89.5,67.1667 89.5,66.5C 89.5,66.1667 89.5,65.8333 89.5,65.5C 93.1361,60.5016 97.8028,56.6682 103.5,54C 107.667,52.8333 109.167,54.3333 108,58.5C 103.916,61.1258 99.7495,63.6258 95.5,66C 91.5587,69.4381 88.2254,73.2714 85.5,77.5 Z"/></g>
<g><path style="opacity:1" fill="#31302f" d="M 86.5,68.5 C 86.5,68.8333 86.5,69.1667 86.5,69.5C 84.4865,71.9017 84.1531,74.5684 85.5,77.5C 81.7544,85.331 78.2544,93.331 75,101.5C 73.9887,102.337 72.8221,102.67 71.5,102.5C 70.1667,102.5 69.5,101.833 69.5,100.5C 71.8693,92.0378 74.536,83.3712 77.5,74.5C 79.6477,71.5974 81.1477,68.2641 82,64.5C 81.7437,68.4355 83.2437,69.7689 86.5,68.5 Z"/></g>
<g><path style="opacity:1" fill="#bb4282" d="M 125.5,67.5 C 124.552,68.9779 123.219,69.9779 121.5,70.5C 119.095,70.8664 116.762,71.5331 114.5,72.5C 112.279,72.5613 111.946,71.8946 113.5,70.5C 116.888,66.7365 120.888,65.7365 125.5,67.5 Z"/></g>
<g><path style="opacity:0.859" fill="#c67da4" d="M 134.5,66.5 C 136.151,68.4021 136.484,70.4021 135.5,72.5C 134.85,70.5648 134.517,68.5648 134.5,66.5 Z"/></g>
<g><path style="opacity:0.961" fill="#ad6f94" d="M 214.5,66.5 C 216.204,69.9385 217.538,73.6052 218.5,77.5C 216.215,74.665 214.882,71.3316 214.5,67.5C 214.5,67.1667 214.5,66.8333 214.5,66.5 Z"/></g>
<g><path style="opacity:1" fill="#ad5d89" d="M 125.5,67.5 C 129.123,69.9974 130.289,73.3307 129,77.5C 129.383,76.944 129.883,76.6107 130.5,76.5C 130.5,77.8333 129.833,78.5 128.5,78.5C 128.167,78.5 127.833,78.5 127.5,78.5C 127.66,76.8008 127.494,75.1341 127,73.5C 126.617,74.056 126.117,74.3893 125.5,74.5C 125.5,74.1667 125.5,73.8333 125.5,73.5C 125.649,72.448 125.483,71.448 125,70.5C 124.014,71.1712 122.847,71.1712 121.5,70.5C 123.219,69.9779 124.552,68.9779 125.5,67.5 Z"/></g>
<g><path style="opacity:0.373" fill="#8d8b8c" d="M 142.5,70.5 C 142.068,71.7095 141.401,72.7095 140.5,73.5C 140.285,71.8212 140.952,70.8212 142.5,70.5 Z"/></g>
<g><path style="opacity:1" fill="#302f2f" d="M 147.5,63.5 C 148.267,64.172 148.934,65.0053 149.5,66C 148.62,67.3561 148.286,68.8561 148.5,70.5C 146.731,76.7233 146.231,83.0567 147,89.5C 148.104,92.7212 149.937,95.3878 152.5,97.5C 150.255,97.5412 149.588,98.3745 150.5,100C 152.5,100.333 154.5,100.667 156.5,101C 153.854,101.497 151.187,101.664 148.5,101.5C 141.408,98.6847 137.742,93.3513 137.5,85.5C 137.998,81.3352 138.998,77.3352 140.5,73.5C 141.401,72.7095 142.068,71.7095 142.5,70.5C 143.01,67.3257 144.677,64.9923 147.5,63.5 Z"/></g>
<g><path style="opacity:1" fill="#bb7ca0" d="M 113.5,70.5 C 111.946,71.8946 112.279,72.5613 114.5,72.5C 116.762,71.5331 119.095,70.8664 121.5,70.5C 118.869,72.1526 116.203,73.8193 113.5,75.5C 112.789,73.1582 111.456,72.8249 109.5,74.5C 110.167,72.5 111.5,71.1667 113.5,70.5 Z"/></g>
<g><path style="opacity:1" fill="#2a2928" d="M 181.5,60.5 C 183.006,63.356 183.672,66.5226 183.5,70C 183.496,72.3608 183.163,74.5274 182.5,76.5C 180.291,77.7212 178.124,79.0545 176,80.5C 176.571,76.0185 176.405,71.6852 175.5,67.5C 174.962,65.8828 174.629,64.2161 174.5,62.5C 174.393,60.6214 174.893,60.2881 176,61.5C 176.308,60.6919 176.808,60.0253 177.5,59.5C 179.516,63.3762 180.349,63.3762 180,59.5C 180.383,60.056 180.883,60.3893 181.5,60.5 Z"/></g>
<g><path style="opacity:1" fill="#8e3b6c" d="M 192.5,68.5 C 193.467,69.8062 194.801,70.4729 196.5,70.5C 193.418,76.999 190.085,83.3324 186.5,89.5C 185.532,87.3926 185.198,85.0593 185.5,82.5C 186.063,78.3922 188.063,74.7255 191.5,71.5C 192.404,70.791 192.737,69.791 192.5,68.5 Z"/></g>
<g><path style="opacity:0.012" fill="#686867" d="M 210.5,72.5 C 209.833,73.1667 209.833,73.1667 210.5,72.5 Z"/></g>
<g><path style="opacity:1" fill="#b45180" d="M 113.5,75.5 C 110.789,77.2752 108.789,79.6085 107.5,82.5C 107.5,81.8333 107.167,81.5 106.5,81.5C 106.935,78.8427 107.935,76.5093 109.5,74.5C 111.456,72.8249 112.789,73.1582 113.5,75.5 Z"/></g>
<g><path style="opacity:0.094" fill="#cab0c3" d="M 125.5,73.5 C 125.5,73.8333 125.5,74.1667 125.5,74.5C 125.167,75.5 124.5,76.1667 123.5,76.5C 123.427,74.9731 124.094,73.9731 125.5,73.5 Z"/></g>
<g><path style="opacity:0.98" fill="#666465" d="M 50.5,73.5 C 50.7406,75.8984 50.0739,77.8984 48.5,79.5C 48.5858,78.5041 48.2524,77.6708 47.5,77C 48.8141,76.015 49.8141,74.8484 50.5,73.5 Z"/></g>
<g><path style="opacity:0.031" fill="#95848e" d="M 211.5,73.5 C 212.434,74.5676 212.768,75.901 212.5,77.5C 210.891,76.3346 210.557,75.0012 211.5,73.5 Z"/></g>
<g><path style="opacity:1" fill="#353434" d="M 175.5,67.5 C 176.405,71.6852 176.571,76.0185 176,80.5C 178.124,79.0545 180.291,77.7212 182.5,76.5C 177.818,90.0146 168.652,99.0146 155,103.5C 152.723,102.883 150.556,102.216 148.5,101.5C 151.187,101.664 153.854,101.497 156.5,101C 154.5,100.667 152.5,100.333 150.5,100C 149.588,98.3745 150.255,97.5412 152.5,97.5C 158.816,98.4238 163.983,96.4238 168,91.5C 173.214,84.3568 175.714,76.3568 175.5,67.5 Z"/></g>
<g><path style="opacity:1" fill="#872c64" d="M 214.5,67.5 C 214.882,71.3316 216.215,74.665 218.5,77.5C 220.771,81.7091 222.771,86.0424 224.5,90.5C 223.603,89.4019 222.77,89.4019 222,90.5C 221.682,88.9391 220.849,87.7724 219.5,87C 220.609,85.187 219.942,84.3537 217.5,84.5C 216.874,81.3934 215.208,79.0601 212.5,77.5C 212.768,75.901 212.434,74.5676 211.5,73.5C 211.5,73.1667 211.5,72.8333 211.5,72.5C 211.721,70.3364 212.721,68.6697 214.5,67.5 Z"/></g>
<g><path style="opacity:0.012" fill="#b5adb3" d="M 106.5,81.5 C 107.167,81.5 107.5,81.8333 107.5,82.5C 107.631,83.3764 107.298,84.0431 106.5,84.5C 105.438,83.5754 105.438,82.5754 106.5,81.5 Z"/></g>
<g><path style="opacity:1" fill="#363535" d="M 47.5,81.5 C 47.372,83.6547 47.872,85.6547 49,87.5C 50.2708,86.1175 51.7708,85.1175 53.5,84.5C 52.4088,87.2721 51.4088,90.1054 50.5,93C 50.8333,93.5 51.1667,94 51.5,94.5C 53.9793,92.9239 56.646,91.9239 59.5,91.5C 59.7035,93.3904 59.0368,94.8904 57.5,96C 53.1378,98.8723 48.4712,101.039 43.5,102.5C 42.032,101.221 41.3653,99.5542 41.5,97.5C 42.9868,91.8802 44.9868,86.5468 47.5,81.5 Z"/></g>
<g><path style="opacity:1" fill="#bb4285" d="M 131.5,56.5 C 132.167,56.5 132.833,56.5 133.5,56.5C 134.414,59.728 134.747,63.0613 134.5,66.5C 134.517,68.5648 134.85,70.5648 135.5,72.5C 133.934,81.0727 129.268,87.406 121.5,91.5C 119.5,91.5 117.5,91.5 115.5,91.5C 113.208,90.3139 110.874,90.3139 108.5,91.5C 113.86,86.8063 118.86,81.8063 123.5,76.5C 124.5,76.1667 125.167,75.5 125.5,74.5C 126.117,74.3893 126.617,74.056 127,73.5C 127.494,75.1341 127.66,76.8008 127.5,78.5C 127.833,79.8333 128.167,79.8333 128.5,78.5C 129.833,78.5 130.5,77.8333 130.5,76.5C 131.374,73.2107 132.041,69.8774 132.5,66.5C 128.31,66.9775 125.31,65.3108 123.5,61.5C 123.557,60.391 123.89,59.391 124.5,58.5C 125.75,58.5774 126.583,59.244 127,60.5C 128.107,59.2881 128.607,59.6214 128.5,61.5C 127.833,61.5 127.5,61.8333 127.5,62.5C 130.183,63.1658 131.516,61.8325 131.5,58.5C 131.5,57.8333 131.5,57.1667 131.5,56.5 Z"/></g>
<g><path style="opacity:1" fill="#82456a" d="M 212.5,77.5 C 215.208,79.0601 216.874,81.3934 217.5,84.5C 219.942,84.3537 220.609,85.187 219.5,87C 220.849,87.7724 221.682,88.9391 222,90.5C 222.77,89.4019 223.603,89.4019 224.5,90.5C 226.558,92.9266 228.391,95.5932 230,98.5C 230.604,106.14 229.271,106.474 226,99.5C 224.846,98.2567 223.512,97.2567 222,96.5C 221.383,95.5509 221.549,94.7175 222.5,94C 220.623,91.7487 219.123,89.2487 218,86.5C 217.25,85.8742 216.416,85.3742 215.5,85C 215.833,84.6667 216.167,84.3333 216.5,84C 215.272,81.8601 213.605,80.1934 211.5,79C 212.056,78.6174 212.389,78.1174 212.5,77.5 Z"/></g>
<g><path style="opacity:1" fill="#823e68" d="M 185.5,82.5 C 185.198,85.0593 185.532,87.3926 186.5,89.5C 186.343,96.1225 183.343,100.789 177.5,103.5C 176.375,102.652 176.375,101.652 177.5,100.5C 178.728,98.9902 178.728,97.4902 177.5,96C 180.836,91.8166 183.503,87.3166 185.5,82.5 Z"/></g>
<g><path style="opacity:1" fill="#ca3e88" d="M 115.5,91.5 C 112.683,94.4571 109.349,96.9571 105.5,99C 103.859,100.129 102.859,101.629 102.5,103.5C 100.606,102.952 98.9397,101.952 97.5,100.5C 100.31,96.3479 103.976,93.3479 108.5,91.5C 110.874,90.3139 113.208,90.3139 115.5,91.5 Z"/></g>
<g><path style="opacity:0.482" fill="#7d7c7d" d="M 41.5,97.5 C 41.3653,99.5542 42.032,101.221 43.5,102.5C 42.5,102.5 41.5,102.5 40.5,102.5C 40.2155,100.585 40.5489,98.9187 41.5,97.5 Z"/></g>
<g><path style="opacity:1" fill="#86456c" d="M 115.5,91.5 C 117.5,91.5 119.5,91.5 121.5,91.5C 115.189,95.4658 108.856,99.4658 102.5,103.5C 102.859,101.629 103.859,100.129 105.5,99C 109.349,96.9571 112.683,94.4571 115.5,91.5 Z"/></g>
<g><path style="opacity:0.192" fill="#a3979e" d="M 177.5,100.5 C 176.375,101.652 176.375,102.652 177.5,103.5C 176.528,104.751 175.861,104.418 175.5,102.5C 175.747,101.287 176.414,100.62 177.5,100.5 Z"/></g>
<g><path style="opacity:0.012" fill="#777576" d="M 69.5,100.5 C 69.5,101.833 70.1667,102.5 71.5,102.5C 70.4574,104.852 69.1241,105.019 67.5,103C 68.0659,102.005 68.7326,101.172 69.5,100.5 Z"/></g>
<g><path style="opacity:0.741" fill="#5a595a" d="M 44.5,121.5 C 41.2247,126.823 37.2247,128.157 32.5,125.5C 34.7955,121.653 35.7955,117.653 35.5,113.5C 39.3543,110.753 38.6876,109.92 33.5,111C 28.2225,113.626 28.2225,116.126 33.5,118.5C 28.547,119.71 26.7137,117.71 28,112.5C 31.8543,108.329 36.3543,107.496 41.5,110C 45.3532,113.102 46.3532,116.935 44.5,121.5 Z M 39.5,111.5 C 40.4584,111.953 41.2917,112.619 42,113.5C 42.6667,116.167 42.6667,118.833 42,121.5C 40.4749,124.087 38.3083,124.92 35.5,124C 37.3405,119.979 38.6738,115.812 39.5,111.5 Z"/></g>
<g><path style="opacity:0.627" fill="#656464" d="M 108.5,108.5 C 110.201,108.966 111.701,108.966 113,108.5C 113.798,110.259 113.631,111.926 112.5,113.5C 111.713,112.758 111.047,111.925 110.5,111C 109.668,110.312 109.002,110.479 108.5,111.5C 110.527,114.221 112.027,117.221 113,120.5C 114.259,116.777 116.592,115.777 120,117.5C 120.301,120.507 120.135,123.507 119.5,126.5C 117.143,126.663 114.81,126.497 112.5,126C 111.874,125.25 111.374,124.416 111,123.5C 107.706,129.343 103.706,129.676 99,124.5C 97.4181,118.965 99.2514,116.298 104.5,116.5C 98.9961,120.083 99.1627,123.083 105,125.5C 108.004,125.03 109.504,123.197 109.5,120C 108.738,117.405 107.738,114.905 106.5,112.5C 106.803,110.886 107.47,109.552 108.5,108.5 Z M 115.5,120.5 C 116.552,120.351 117.552,120.517 118.5,121C 117.716,123.998 116.049,124.831 113.5,123.5C 114.193,122.482 114.859,121.482 115.5,120.5 Z"/></g>
<g><path style="opacity:0.333" fill="#656465" d="M 157.5,125.5 C 155.83,125.751 154.33,126.418 153,127.5C 152.075,126.953 151.242,126.287 150.5,125.5C 152.078,124.702 153.744,124.202 155.5,124C 154.549,123.282 154.383,122.449 155,121.5C 156.205,120.929 157.372,120.262 158.5,119.5C 159.377,116.825 161.044,114.158 163.5,111.5C 160.832,110.262 158.166,110.262 155.5,111.5C 152.683,114.654 153.35,116.987 157.5,118.5C 152.547,119.71 150.714,117.71 152,112.5C 156.09,108.106 160.757,107.439 166,110.5C 168.388,109.883 170.721,109.55 173,109.5C 173.5,109.833 174,110.167 174.5,110.5C 172.721,113.115 172.055,115.782 172.5,118.5C 174.901,115.587 176.234,115.921 176.5,119.5C 171.939,119.976 171.272,121.976 174.5,125.5C 173.675,126.386 172.675,126.719 171.5,126.5C 171.688,124.897 171.188,123.563 170,122.5C 169.252,124.332 168.252,125.999 167,127.5C 165.667,126.167 164.333,126.167 163,127.5C 164.322,123.486 162.822,121.986 158.5,123C 157.748,123.671 157.414,124.504 157.5,125.5 Z M 167.5,112.5 C 168.209,111.596 169.209,111.263 170.5,111.5C 170.091,116.227 168.591,120.56 166,124.5C 166.392,121.306 167.226,118.139 168.5,115C 168.472,113.93 168.139,113.097 167.5,112.5 Z M 164.5,112.5 C 165.695,112.866 166.361,113.699 166.5,115C 165.852,116.44 165.519,117.94 165.5,119.5C 163.774,119.815 162.107,119.981 160.5,120C 161.986,117.525 163.319,115.025 164.5,112.5 Z"/></g>
<g><path style="opacity:0.102" fill="#686768" d="M 133.5,116.5 C 135.971,116.233 137.638,117.233 138.5,119.5C 137.777,121.782 137.443,124.116 137.5,126.5C 134.833,126.5 132.167,126.5 129.5,126.5C 129.408,122.593 130.742,119.26 133.5,116.5 Z M 133.5,120.5 C 136.101,121.922 135.934,123.256 133,124.5C 132.5,124.167 132,123.833 131.5,123.5C 132.193,122.482 132.859,121.482 133.5,120.5 Z"/></g>
<g><path style="opacity:0.843" fill="#5a5959" d="M 206.5,120.5 C 207.625,119.652 207.625,118.652 206.5,117.5C 208.338,117.023 210.172,116.69 212,116.5C 212.944,117.263 213.444,118.263 213.5,119.5C 212.052,122.267 211.219,124.933 211,127.5C 209.357,125.01 209.524,122.51 211.5,120C 211.167,119.833 210.833,119.667 210.5,119.5C 208.94,122.326 207.107,124.993 205,127.5C 204.865,125.078 205.365,122.745 206.5,120.5 Z"/></g>
<g><path style="opacity:0.753" fill="#5b5a5b" d="M 124.5,116.5 C 129.912,116.489 130.912,118.989 127.5,124C 128.622,125.613 128.122,126.78 126,127.5C 125.463,124.813 125.963,122.313 127.5,120C 127.167,119.833 126.833,119.667 126.5,119.5C 124.219,121.8 122.386,124.466 121,127.5C 120.748,125.069 121.248,122.735 122.5,120.5C 122.167,119.833 121.833,119.167 121.5,118.5C 122.602,117.824 123.602,117.158 124.5,116.5 Z"/></g>
<g><path style="opacity:0.812" fill="#716e70" d="M 217.5,122.5 C 216.85,124.447 215.683,126.113 214,127.5C 213.748,125.069 214.248,122.735 215.5,120.5C 215.167,119.833 214.833,119.167 214.5,118.5C 216.074,117.016 217.407,115.349 218.5,113.5C 218.833,114 219.167,114.5 219.5,115C 218.521,117.433 217.855,119.933 217.5,122.5 Z"/></g>
<g><path style="opacity:0.645" fill="#6a686a" d="M 44.5,121.5 C 45.9335,120.167 47.2668,118.667 48.5,117C 53.759,117.194 54.759,119.527 51.5,124C 52,124.5 52.5,125 53,125.5C 54.5234,123.17 55.0234,120.836 54.5,118.5C 55.2421,117.713 56.0754,117.047 57,116.5C 58.1131,117.711 59.2798,117.711 60.5,116.5C 62.69,117.748 63.0234,119.414 61.5,121.5C 61.8457,122.696 62.3457,122.696 63,121.5C 63.4828,122.448 63.6495,123.448 63.5,124.5C 64.552,124.649 65.552,124.483 66.5,124C 61.6304,119.05 62.6304,116.55 69.5,116.5C 69.7733,118.451 69.1066,119.951 67.5,121C 68.7442,123.988 67.7442,126.155 64.5,127.5C 63.5224,127.023 62.6891,126.357 62,125.5C 60.2657,126.638 58.4324,127.138 56.5,127C 58.5436,124.869 59.377,122.369 59,119.5C 56.997,122.222 54.997,124.888 53,127.5C 50.2809,126.556 47.4475,126.223 44.5,126.5C 44.5,124.833 44.5,123.167 44.5,121.5 Z M 48.5,120.5 C 51.1009,121.922 50.9342,123.256 48,124.5C 47.5,124.167 47,123.833 46.5,123.5C 47.1925,122.482 47.8592,121.482 48.5,120.5 Z"/></g>
<g><path style="opacity:0.78" fill="#636162" d="M 79.5,116.5 C 82.766,116.433 84.266,118.099 84,121.5C 85.1719,118.297 87.3386,116.797 90.5,117C 91.9348,119.267 91.6015,121.267 89.5,123C 90.3081,123.308 90.9747,123.808 91.5,124.5C 88.1399,128.64 85.3065,128.306 83,123.5C 80.4421,127.427 77.6088,127.927 74.5,125C 76.0449,122.915 76.3782,120.748 75.5,118.5C 76.9492,117.828 78.2825,117.161 79.5,116.5 Z M 88.5,118.5 C 89.525,118.897 89.6917,119.563 89,120.5C 88.1627,122.007 86.9961,122.507 85.5,122C 86.7101,120.961 87.7101,119.794 88.5,118.5 Z M 80.5,118.5 C 82.0232,121.045 81.3566,123.045 78.5,124.5C 77.7217,122.165 78.3883,120.165 80.5,118.5 Z"/></g>
<g><path style="opacity:0.596" fill="#626162" d="M 201.5,121.5 C 202.161,120.282 202.828,118.949 203.5,117.5C 204.527,116.209 205.527,116.209 206.5,117.5C 207.625,118.652 207.625,119.652 206.5,120.5C 206.19,119.262 205.69,119.262 205,120.5C 204.222,123.184 202.889,125.517 201,127.5C 200.667,126.833 200.333,126.167 200,125.5C 198.057,126.807 196.223,126.807 194.5,125.5C 194.672,124.508 194.338,123.842 193.5,123.5C 193.539,121.776 193.206,121.443 192.5,122.5C 191.566,123.568 191.232,124.901 191.5,126.5C 189.473,126.662 187.473,126.495 185.5,126C 184.118,121.295 183.451,121.461 183.5,126.5C 174.834,127.746 173.334,124.746 179,117.5C 183.047,115.531 185.047,116.864 185,121.5C 186.283,117.815 188.617,116.481 192,117.5C 193.595,115.575 193.762,113.575 192.5,111.5C 193.968,109.667 195.635,109.334 197.5,110.5C 195.423,113.624 194.257,116.958 194,120.5C 195.389,118.773 197.056,117.439 199,116.5C 201.157,117.385 201.99,119.052 201.5,121.5 Z M 201.5,121.5 C 201.649,122.552 201.483,123.552 201,124.5C 200.329,123.748 199.496,123.414 198.5,123.5C 199.29,122.599 200.29,121.932 201.5,121.5 Z M 179.5,120.5 C 183.208,121.551 183.041,122.884 179,124.5C 178.5,124.167 178,123.833 177.5,123.5C 178.193,122.482 178.859,121.482 179.5,120.5 Z M 197.5,118.5 C 199.885,119.867 199.552,121.201 196.5,122.5C 196.167,122.333 195.833,122.167 195.5,122C 196.305,120.887 196.972,119.721 197.5,118.5 Z M 189.5,118.5 C 190.376,118.369 191.043,118.702 191.5,119.5C 191.134,121.84 189.967,123.507 188,124.5C 187.5,124.167 187,123.833 186.5,123.5C 187.26,121.64 188.26,119.973 189.5,118.5 Z"/></g>
<g><path style="opacity:0.733" fill="#696868" d="M 143.5,111.5 C 145.688,112.536 145.688,114.036 143.5,116C 144.308,116.308 144.975,116.808 145.5,117.5C 142.346,119.46 141.179,122.126 142,125.5C 140.989,126.337 139.822,126.67 138.5,126.5C 138.665,124.173 139.331,122.007 140.5,120C 139.332,118.594 139.665,117.428 141.5,116.5C 140.975,115.808 140.308,115.308 139.5,115C 140.731,113.595 142.064,112.429 143.5,111.5 Z"/></g>
<g><path style="opacity:0.124" fill="#a0979d" d="M 192.5,122.5 C 192.5,123.167 192.833,123.5 193.5,123.5C 194.338,123.842 194.672,124.508 194.5,125.5C 193.391,125.557 192.391,125.89 191.5,126.5C 191.232,124.901 191.566,123.568 192.5,122.5 Z"/></g>
<g><path style="opacity:0.408" fill="#787577" d="M 224.5,124.5 C 220.723,128.776 218.389,128.109 217.5,122.5C 219.203,121.34 219.869,122.007 219.5,124.5C 220.675,124.719 221.675,124.386 222.5,123.5C 221.248,121.999 220.248,120.332 219.5,118.5C 221.927,115.71 223.927,115.876 225.5,119C 225.095,119.945 224.428,120.612 223.5,121C 224.337,122.011 224.67,123.178 224.5,124.5 Z"/></g>
<g><path style="opacity:0.529" fill="#6d6b6c" d="M 224.5,124.5 C 226.067,120.395 227.733,116.728 229.5,113.5C 229.947,116.888 229.281,120.221 227.5,123.5C 227.833,124.167 228.167,124.833 228.5,125.5C 225.8,128.075 224.467,127.742 224.5,124.5 Z"/></g>
<g><path style="opacity:0.012" fill="#c8c1c6" d="M 157.5,125.5 C 158.833,126.167 158.833,126.167 157.5,125.5 Z"/></g>
</svg>
