<?xml version="1.0" standalone="no"?>
<!DOCTYPE svg PUBLIC "-//W3C//DTD SVG 20010904//EN"
 "http://www.w3.org/TR/2001/REC-SVG-20010904/DTD/svg10.dtd">
<svg version="1.0" xmlns="http://www.w3.org/2000/svg"
 width="150" height="150" viewBox="0 0 302.000000 82.000000"
 preserveAspectRatio="xMidYMid meet">

<g transform="translate(0.000000,82.000000) scale(0.100000,-0.100000)"
fill="#000000" stroke="none">
<path fill="red" d="M477 696 c-68 -25 -97 -66 -97 -138 0 -88 61 -148 150 -148 156 0
201 207 60 278 -51 25 -61 26 -113 8z"/>
<path fill="red" d="M186 684 c-9 -24 -7 -247 3 -263 10 -16 50 -9 86 15 53 35 72 141 35
201 -32 52 -110 82 -124 47z"/>
<path fill="red" d="M785 680 c-93 -61 -84 -200 16 -254 65 -35 70 -25 67 131 l-3 138
-25 3 c-14 1 -38 -7 -55 -18z"/>
<path d="M1575 650 c-8 -14 3 -30 21 -30 8 0 14 9 14 20 0 21 -24 28 -35 10z"/>
<path d="M1860 640 c0 -15 5 -20 18 -18 9 2 17 10 17 18 0 8 -8 16 -17 18 -13
2 -18 -3 -18 -18z"/>
<path d="M2295 650 c-8 -14 3 -30 21 -30 8 0 14 9 14 20 0 21 -24 28 -35 10z"/>
<path d="M1020 563 c18 -28 30 -60 30 -80 0 -26 4 -33 20 -33 16 0 20 7 20 33
0 18 6 41 13 52 52 76 52 75 23 75 -17 0 -30 -8 -39 -27 l-14 -26 -18 26 c-11
17 -26 27 -41 27 l-24 0 30 -47z"/>
<path d="M1190 530 l0 -80 61 0 c52 0 60 2 57 18 -2 12 -14 18 -41 20 -46 4
-49 20 -5 24 22 2 34 9 36 21 3 14 -4 17 -32 17 -20 0 -36 5 -36 10 0 6 16 10
35 10 28 0 35 4 35 20 0 18 -7 20 -55 20 l-55 0 0 -80z"/>
<path d="M1360 530 c0 -73 2 -80 19 -80 17 0 20 8 23 48 l3 47 28 -47 c21 -37
34 -48 52 -48 24 0 25 2 25 80 0 73 -2 80 -19 80 -17 0 -20 -8 -23 -47 l-3
-48 -28 48 c-21 36 -34 47 -52 47 -24 0 -25 -2 -25 -80z"/>
<path d="M1570 530 c0 -73 2 -80 20 -80 18 0 20 7 20 80 0 73 -2 80 -20 80
-18 0 -20 -7 -20 -80z"/>
<path d="M1670 530 l0 -80 46 0 c25 0 54 5 65 10 19 11 26 54 10 64 -4 3 -6
17 -3 31 7 39 -14 55 -69 55 l-49 0 0 -80z m80 35 c0 -8 -7 -15 -15 -15 -8 0
-15 7 -15 15 0 8 7 15 15 15 8 0 15 -7 15 -15z m8 -62 c2 -8 -5 -13 -17 -13
-12 0 -21 6 -21 16 0 18 31 15 38 -3z"/>
<path d="M1850 530 c0 -79 0 -80 25 -80 25 0 25 1 25 80 0 79 0 80 -25 80 -25
0 -25 -1 -25 -80z"/>
<path d="M1960 530 c0 -72 2 -80 19 -80 15 0 21 8 23 33 l4 32 19 -32 c13 -22
28 -33 43 -33 l24 0 -20 34 c-17 28 -18 35 -6 40 17 7 19 57 2 74 -7 7 -34 12
-60 12 l-48 0 0 -80z m75 30 c0 -8 -8 -16 -17 -18 -13 -2 -18 3 -18 18 0 15 5
20 18 18 9 -2 17 -10 17 -18z"/>
<path d="M2140 530 l0 -80 50 0 c43 0 50 3 50 20 0 16 -7 20 -30 20 l-30 0 0
60 c0 53 -2 60 -20 60 -18 0 -20 -7 -20 -80z"/>
<path d="M2290 530 c0 -73 2 -80 20 -80 18 0 20 7 20 80 0 73 -2 80 -20 80
-18 0 -20 -7 -20 -80z"/>
<path d="M2390 530 l0 -80 48 0 c79 0 122 47 100 110 -12 36 -41 50 -104 50
l-44 0 0 -80z m108 12 c4 -28 -14 -52 -39 -52 -16 0 -19 8 -19 41 0 38 1 40
28 37 19 -2 28 -9 30 -26z"/>
<path d="M2600 530 l0 -80 55 0 c48 0 55 2 55 20 0 16 -7 20 -35 20 -44 0 -46
18 -3 22 22 2 34 9 36 21 3 14 -4 17 -32 17 -20 0 -36 5 -36 10 0 6 16 10 35
10 28 0 35 4 35 20 0 18 -7 20 -55 20 l-55 0 0 -80z"/>
<path d="M2770 530 c0 -72 2 -80 19 -80 15 0 21 8 23 33 l3 32 18 -32 c13 -24
25 -33 43 -33 l26 0 -20 34 c-18 30 -19 36 -6 47 20 17 17 57 -5 69 -11 5 -38
10 -60 10 l-41 0 0 -80z m76 39 c3 -6 0 -15 -7 -20 -22 -14 -29 -11 -29 11 0
21 24 27 36 9z"/>
<path fill="red" d="M184 354 c-4 -14 -4 -61 -2 -105 5 -92 22 -123 83 -153 62 -31 69
-20 73 120 4 169 6 164 -78 164 -66 0 -70 -1 -76 -26z"/>
<path fill="red" d="M382 233 l3 -148 142 -3 c169 -3 155 -19 151 168 l-3 125 -148 3
-148 3 3 -148z"/>
<path fill="red" d="M722 233 c3 -165 5 -169 72 -138 60 28 71 56 71 175 l0 105 -73 3
-73 3 3 -148z"/>
<path d="M1873 336 c5 -14 49 -15 54 -1 1 6 -11 10 -27 11 -19 1 -29 -3 -27
-10z"/>
<path d="M2020 340 c0 -5 5 -10 10 -10 6 0 10 5 10 10 0 6 -4 10 -10 10 -5 0
-10 -4 -10 -10z"/>
<path d="M1010 235 l0 -75 34 0 c75 0 115 81 66 130 -13 13 -33 20 -60 20
l-40 0 0 -75z m88 43 c7 -7 12 -27 12 -45 0 -34 -21 -53 -59 -53 -19 0 -21 6
-21 55 0 54 1 55 28 55 15 0 33 -5 40 -12z"/>
<path d="M1190 235 l0 -75 50 0 c28 0 50 5 50 10 0 6 -18 10 -40 10 -36 0 -40
3 -40 25 0 22 4 25 35 25 19 0 35 5 35 10 0 6 -16 10 -35 10 -28 0 -35 4 -35
20 0 16 7 20 34 20 19 0 38 5 41 10 4 6 -13 10 -44 10 l-51 0 0 -75z"/>
<path d="M1340 241 c0 -39 5 -73 10 -76 6 -4 10 8 10 29 0 46 20 47 44 1 11
-19 23 -35 28 -35 12 0 10 13 -8 38 -15 21 -15 25 0 41 34 37 12 71 -46 71
l-38 0 0 -69z m75 29 c0 -9 -11 -16 -27 -18 -23 -3 -28 1 -28 18 0 17 5 21 28
18 16 -2 27 -9 27 -18z"/>
<path d="M1502 233 l1 -78 6 65 6 65 40 -63 c54 -83 65 -81 65 13 0 87 -18
102 -22 19 l-3 -57 -39 57 c-21 31 -42 56 -47 56 -5 0 -8 -35 -7 -77z"/>
<path d="M1680 235 l0 -75 50 0 c28 0 50 5 50 10 0 6 -18 10 -40 10 -36 0 -40
3 -40 25 0 22 4 25 35 25 19 0 35 5 35 10 0 6 -16 10 -35 10 -28 0 -35 4 -35
20 0 16 7 20 34 20 19 0 38 5 41 10 4 6 -13 10 -44 10 l-51 0 0 -75z"/>
<path d="M1847 292 c-24 -26 -22 -87 3 -112 20 -20 63 -26 94 -14 10 4 16 18
16 40 0 30 -3 34 -25 34 -14 0 -25 -4 -25 -10 0 -5 7 -10 15 -10 8 0 15 -9 15
-20 0 -16 -7 -20 -33 -20 -42 0 -57 15 -57 57 0 44 38 71 76 54 20 -9 25 -9
22 1 -7 22 -81 22 -101 0z"/>
<path d="M2020 235 c0 -43 4 -75 10 -75 6 0 10 32 10 75 0 43 -4 75 -10 75 -6
0 -10 -32 -10 -75z"/>
</g>
</svg>
